<svg xmlns="http://www.w3.org/2000/svg" width="48" height="48">
    <path fill-rule="evenodd" d="M24 4.812c10.597 0 19.188 8.591 19.188 19.188S34.597 43.188 24 43.188 4.812 34.597 4.812 24 13.403 4.812 24 4.812z" opacity=".6"/>
    <path fill="#FFF" fill-rule="evenodd" d="M27.854 15.789L20.142 23.5l7.712 7.711c.185.186.185.487 0 .672-.186.186-.488.186-.673 0l-8.004-8.004c-.019-.014-.044-.009-.061-.026-.097-.097-.141-.226-.136-.353-.005-.128.039-.257.136-.354.017-.017.042-.011.06-.025l8.005-8.005c.185-.185.487-.185.673 0 .185.186.185.487 0 .673z"/>
</svg>
