<svg xmlns="http://www.w3.org/2000/svg" width="48" height="48">
    <path fill-rule="evenodd" d="M24 4.812c10.597 0 19.188 8.591 19.188 19.188S34.597 43.188 24 43.188 4.812 34.597 4.812 24 13.403 4.812 24 4.812z" opacity=".6"/>
    <path fill="#FFF" fill-rule="evenodd" d="M28.884 23.853c-.017.017-.042.012-.061.026l-8.004 8.004c-.185.186-.487.186-.673 0-.185-.185-.185-.486 0-.672l7.712-7.711-7.712-7.711c-.185-.186-.185-.487 0-.673.186-.185.488-.185.673 0l8.005 8.005c.018.014.043.008.06.025.097.097.141.226.136.354.005.127-.039.256-.136.353z"/>
</svg>
