<svg xmlns="http://www.w3.org/2000/svg" width="66" height="66">
    <path fill="#FFF" fill-rule="evenodd" d="M61.005 40.511c-.689 2.581-1.726 5.019-3.056 7.263-1.265 2.131-2.793 4.087-4.541 5.82-1.692 1.678-3.589 3.147-5.651 4.37-2.253 1.336-4.702 2.375-7.295 3.064-2.383.634-4.887.973-7.47.973-.637 0-1.268-.022-1.895-.063-1.915-.123-3.779-.433-5.575-.91-2.573-.684-5.003-1.713-7.242-3.033-2.134-1.26-4.094-2.784-5.832-4.529-1.68-1.687-3.153-3.581-4.379-5.639-1.341-2.249-2.385-4.694-3.08-7.282-.487-1.817-.803-3.704-.929-5.643-.04-.627-.062-1.259-.062-1.896 0-.622.021-1.238.06-1.851.121-1.93.432-3.809.912-5.618.69-2.593 1.729-5.042 3.065-7.296 1.223-2.061 2.692-3.958 4.369-5.65l5.109 5.109.017.017c-1.687 1.705-3.094 3.688-4.146 5.874-1.211 2.519-1.951 5.308-2.107 8.253-.02.384-.031.772-.031 1.162 0 .418.013.834.036 1.246.167 2.937.914 5.718 2.131 8.229 1.059 2.181 2.47 4.16 4.161 5.859 1.749 1.759 3.796 3.219 6.06 4.301 2.504 1.195 5.273 1.926 8.195 2.081.385.02.773.031 1.163.031s.778-.011 1.163-.031c2.945-.156 5.734-.896 8.253-2.108 2.186-1.052 4.169-2.458 5.875-4.145 1.762-1.743 3.229-3.785 4.316-6.044 1.207-2.508 1.946-5.284 2.107-8.214.021-.399.033-.8.033-1.205 0-.391-.011-.779-.031-1.165-.154-2.921-.885-5.689-2.081-8.194-1.081-2.263-2.542-4.311-4.3-6.06l5.126-5.126c1.745 1.739 3.268 3.698 4.528 5.833 1.321 2.238 2.349 4.669 3.033 7.241.634 2.384.974 4.888.974 7.471 0 2.596-.344 5.111-.983 7.505zM38.195 17.7l5.01 5.01-.004.003c1.799 1.784 3.132 4.036 3.803 6.558.316 1.192.486 2.444.486 3.735 0 1.317-.176 2.592-.505 3.805-.682 2.515-2.024 4.758-3.828 6.532-1.748 1.719-3.928 2.996-6.364 3.656-1.211.329-2.485.505-3.801.505-1.291 0-2.543-.17-3.734-.487-2.523-.671-4.775-2.004-6.558-3.802-1.724-1.739-3.01-3.91-3.681-6.338-.341-1.233-.525-2.53-.525-3.871 0-1.315.177-2.589.506-3.801.592-2.186 1.682-4.166 3.142-5.813.166-.187.337-.371.514-.549.233-.238.475-.467.723-.687l4.475-4.476-4.281-4.28-.879-.88-4.47-4.469c2.244-1.331 4.683-2.368 7.264-3.058 1.821-.486 3.712-.799 5.655-.922.611-.038 1.228-.06 1.849-.06 2.609 0 5.135.346 7.54.992 2.588.695 5.033 1.739 7.281 3.079l-5.346 5.345-4.272 4.273zm-.673 9.649l-4.487-4.488-4.234 4.233-.947.947-.773.773c-.841 1.184-1.337 2.63-1.337 4.192 0 1.727.605 3.311 1.612 4.556l.498.498.583.583c1.245 1.008 2.83 1.612 4.555 1.612 1.959 0 3.734-.778 5.038-2.039 1.362-1.318 2.212-3.164 2.212-5.21 0-1.714-.597-3.288-1.592-4.529l-.606-.607-.522-.521z"/>
</svg>
