<svg xmlns="http://www.w3.org/2000/svg" width="74" height="15">
    <path fill="#333" fill-rule="evenodd" d="M72.706 3.643c-1.12-1.08-2.474-1.62-4.06-1.62-1.067 0-2.024.23-2.87.69-.847.46-1.51 1.1-1.99 1.92-.48.82-.72 1.743-.72 2.77 0 1.013.24 1.93.72 2.75.48.82 1.143 1.463 1.99 1.93.846.467 1.796.7 2.85.7 1.253 0 2.346-.3 3.28-.9v-4.56h1.92v5.46c-.694.573-1.5 1.013-2.42 1.32-.92.306-1.88.46-2.88.46-1.414 0-2.687-.31-3.82-.93-1.134-.62-2.024-1.473-2.67-2.56-.647-1.087-.97-2.31-.97-3.67 0-1.36.323-2.587.97-3.68.646-1.093 1.54-1.947 2.68-2.56 1.14-.613 2.423-.92 3.85-.92 1.12 0 2.136.183 3.05.55.913.367 1.69.903 2.33 1.61l-1.24 1.24zm-24.74.32v10.44h-2v-14h1.64l8.4 10.44V.403h2v14h-1.64l-8.4-10.44zm-8.68 9.67c-1.133.62-2.4.93-3.8.93-1.413 0-2.687-.31-3.82-.93-1.133-.62-2.023-1.477-2.67-2.57-.647-1.093-.97-2.313-.97-3.66s.323-2.567.97-3.66 1.537-1.95 2.67-2.57c1.133-.62 2.407-.93 3.82-.93 1.4 0 2.667.31 3.8.93 1.133.62 2.02 1.473 2.66 2.56.64 1.087.96 2.31.96 3.67 0 1.36-.32 2.583-.96 3.67-.64 1.087-1.527 1.94-2.66 2.56zm.91-8.98c-.473-.82-1.12-1.463-1.94-1.93-.82-.467-1.743-.7-2.77-.7s-1.957.233-2.79.7c-.833.467-1.487 1.11-1.96 1.93-.473.82-.71 1.737-.71 2.75s.237 1.93.71 2.75c.473.82 1.127 1.463 1.96 1.93.833.467 1.763.7 2.79.7 1.027 0 1.95-.233 2.77-.7.82-.467 1.467-1.11 1.94-1.93.473-.82.71-1.737.71-2.75s-.237-1.93-.71-2.75zm-16.21 9.75l-3.02-4.3c-.373.027-.667.04-.88.04h-3.46v4.26h-2v-14h5.46c1.813 0 3.24.433 4.28 1.3s1.56 2.06 1.56 3.58c0 1.08-.267 2-.8 2.76-.533.76-1.293 1.313-2.28 1.66l3.32 4.7h-2.18zm-1.06-6.78c.667-.547 1-1.327 1-2.34s-.333-1.79-1-2.33-1.633-.81-2.9-.81h-3.4v6.3h3.4c1.267 0 2.233-.273 2.9-.82zm-17.08 2.54h-3.46v4.24h-2v-14h5.46c1.814 0 3.24.433 4.28 1.3s1.56 2.06 1.56 3.58-.52 2.713-1.56 3.58-2.466 1.3-4.28 1.3zm2.84-7.21c-.666-.54-1.633-.81-2.9-.81h-3.4v6.28h3.4c1.267 0 2.234-.27 2.9-.81.667-.54 1-1.317 1-2.33 0-1.013-.333-1.79-1-2.33z"/>
</svg>
