<svg xmlns="http://www.w3.org/2000/svg" width="37" height="37">
    <path fill="#FFF" fill-rule="evenodd" stroke="#D8D8D8" d="M3.5 3.5h30v30h-30v-30z"/>
    <path fill="#222" fill-rule="evenodd" d="M24.202 19.222l-5.129 4.972c-.205.202-.479.301-.756.301-.272 0-.118-.099-.332-.301-.426-.4-.003-1.052.409-1.452l4.381-4.246-4.504-4.245c-.427-.402-.87-1.051-.454-1.453.413-.401.662-.401 1.087 0l5.276 4.973c.206.191.32.452.326.725.003.272-.105.533-.304.726zm-4.829-.726c.006.272-.104.533-.304.726l-5.127 4.972c-.208.202-.479.301-.757.301-.274 0-.119-.099-.33-.301-.424-.4-.006-1.052.407-1.452l4.384-4.246-4.508-4.245c-.423-.402-.868-1.051-.454-1.453.415-.401.664-.401 1.089 0l5.275 4.973c.206.191.322.452.325.725z"/>
</svg>
