<svg xmlns="http://www.w3.org/2000/svg" width="37" height="37">
    <path fill="#FFF" fill-rule="evenodd" stroke="#E5E5E5" d="M3.5 3.5h30v30h-30v-30z"/>
    <path fill="#222" fill-rule="evenodd" d="M23.862 14.251l-4.508 4.245 4.383 4.246c.414.4.832 1.052.408 1.452-.211.202-.056.301-.331.301-.277 0-.549-.099-.756-.301l-5.126-4.972c-.201-.193-.31-.454-.306-.726.004-.273.12-.534.325-.725l5.276-4.973c.424-.401.673-.401 1.089 0 .413.402-.03 1.051-.454 1.453zm-9.638 4.245l4.382 4.246c.412.4.836 1.052.409 1.452-.214.202-.061.301-.331.301-.278 0-.552-.099-.756-.301l-5.13-4.972c-.199-.193-.307-.454-.304-.726.006-.273.121-.534.326-.725l5.276-4.973c.426-.401.673-.401 1.087 0 .415.402-.027 1.051-.454 1.453l-4.505 4.245z"/>
</svg>
